<svg xmlns="http://www.w3.org/2000/svg" width="1040" height="600" viewBox="0 0 1040 600">
<rect width="100%" height="100%" fill="#ffffff"/>
<text x="520.0" y="30" text-anchor="middle" font-family="sans-serif" font-size="20" font-weight="700">Bump Probe Loss Overlay</text>
<rect x="82" y="54" width="930" height="480" fill="#fafafa" stroke="#cccccc"/>
<line x1="82" x2="1012" y1="534.0" y2="534.0" stroke="#e5e5e5"/>
<text x="72" y="538.0" text-anchor="end" font-family="monospace" font-size="12" fill="#333">2.523</text>
<line x1="82" x2="1012" y1="438.0" y2="438.0" stroke="#e5e5e5"/>
<text x="72" y="442.0" text-anchor="end" font-family="monospace" font-size="12" fill="#333">2.626</text>
<line x1="82" x2="1012" y1="342.0" y2="342.0" stroke="#e5e5e5"/>
<text x="72" y="346.0" text-anchor="end" font-family="monospace" font-size="12" fill="#333">2.728</text>
<line x1="82" x2="1012" y1="246.0" y2="246.0" stroke="#e5e5e5"/>
<text x="72" y="250.0" text-anchor="end" font-family="monospace" font-size="12" fill="#333">2.831</text>
<line x1="82" x2="1012" y1="150.0" y2="150.0" stroke="#e5e5e5"/>
<text x="72" y="154.0" text-anchor="end" font-family="monospace" font-size="12" fill="#333">2.933</text>
<line x1="82" x2="1012" y1="54.0" y2="54.0" stroke="#e5e5e5"/>
<text x="72" y="58.0" text-anchor="end" font-family="monospace" font-size="12" fill="#333">3.036</text>
<line x1="215.8" x2="215.8" y1="54" y2="534" stroke="#eeeeee"/>
<text x="215.8" y="558" text-anchor="middle" font-family="monospace" font-size="12" fill="#333">2200</text>
<line x1="884.9" x2="884.9" y1="54" y2="534" stroke="#eeeeee"/>
<text x="884.9" y="558" text-anchor="middle" font-family="monospace" font-size="12" fill="#333">2300</text>
<line x1="82.0" x2="82.0" y1="54" y2="534" stroke="#777" stroke-width="1.4" stroke-dasharray="5 5"/>
<text x="88.0" y="70" font-family="sans-serif" font-size="12" fill="#777">pre probes</text>
<line x1="215.8" x2="215.8" y1="54" y2="534" stroke="#111" stroke-width="1.4" stroke-dasharray="5 5"/>
<text x="221.8" y="86" font-family="sans-serif" font-size="12" fill="#111">hard switch</text>
<line x1="884.9" x2="884.9" y1="54" y2="534" stroke="#777" stroke-width="1.4" stroke-dasharray="5 5"/>
<text x="890.9" y="102" font-family="sans-serif" font-size="12" fill="#777">post-late probes</text>
<polyline fill="none" stroke="#1f77b4" stroke-width="2.3" points="82.0,484.1 88.7,474.9 95.4,485.5 102.1,477.2 108.8,481.4 115.5,479.8 122.1,481.1 128.8,481.6 135.5,476.6 142.2,482.9 148.9,477.8 155.6,482.2 162.3,476.0 169.0,483.9 175.7,480.2 182.4,486.3 189.1,480.9 195.7,484.2 202.4,483.6 209.1,482.8 215.8,468.6 222.5,469.0 229.2,474.5 235.9,476.7 242.6,479.2 249.3,474.5 256.0,480.3 262.6,473.8 269.3,481.2 276.0,477.6 282.7,480.0 289.4,478.8 296.1,485.5 302.8,479.1 309.5,486.6 316.2,475.6 322.9,486.1 329.6,479.2 336.2,483.0 342.9,481.1 884.9,489.2 891.6,494.9 898.3,488.9 904.9,495.5 911.6,490.4 918.3,493.7 925.0,488.1 931.7,494.2 938.4,487.6 945.1,492.0 951.8,491.1 958.5,494.1 965.2,495.9 971.9,495.5 978.5,494.4 985.2,495.2 991.9,494.5 998.6,490.7 1005.3,495.3 1012.0,492.9"/>
<polyline fill="none" stroke="#d62728" stroke-width="2.3" points="82.0,478.7 88.7,478.2 95.4,480.9 102.1,477.4 108.8,481.0 115.5,475.3 122.1,481.6 128.8,474.8 135.5,483.9 142.2,472.3 148.9,482.2 155.6,474.5 162.3,477.9 169.0,474.5 175.7,478.2 182.4,478.6 189.1,481.8 195.7,478.2 202.4,484.2 209.1,479.1 215.8,87.1 222.5,280.9 229.2,348.1 235.9,375.2 242.6,395.7 249.3,401.4 256.0,417.0 262.6,426.3 269.3,433.6 276.0,438.1 282.7,444.0 289.4,445.4 296.1,452.2 302.8,453.9 309.5,458.5 316.2,458.6 322.9,461.6 329.6,459.7 336.2,461.4 342.9,461.7 884.9,495.9 891.6,495.7 898.3,497.0 904.9,495.2 911.6,497.9 918.3,495.2 925.0,497.6 931.7,495.0 938.4,496.4 945.1,495.5 951.8,495.7 958.5,499.6 965.2,498.4 971.9,500.5 978.5,499.5 985.2,496.8 991.9,499.2 998.6,491.8 1005.3,500.9 1012.0,497.4"/>
<polyline fill="none" stroke="#2ca02c" stroke-width="2.3" points="82.0,481.5 88.7,485.1 95.4,481.5 102.1,483.4 108.8,481.3 115.5,482.1 122.1,477.6 128.8,480.9 135.5,479.4 142.2,478.9 148.9,479.8 155.6,481.2 162.3,479.8 169.0,480.9 175.7,478.3 182.4,484.8 189.1,477.5 195.7,484.0 202.4,481.2 209.1,481.1 215.8,299.6 222.5,384.1 229.2,413.0 235.9,425.1 242.6,430.3 249.3,438.2 256.0,443.0 262.6,450.5 269.3,452.9 276.0,458.5 282.7,458.9 289.4,463.1 296.1,462.6 302.8,467.9 309.5,466.2 316.2,469.5 322.9,468.0 329.6,471.3 336.2,467.2 342.9,473.1 884.9,488.2 891.6,492.6 898.3,488.8 904.9,490.7 911.6,488.1 918.3,489.8 925.0,486.9 931.7,491.2 938.4,486.9 945.1,488.5 951.8,490.3 958.5,488.9 965.2,496.8 971.9,486.2 978.5,494.9 985.2,490.6 991.9,496.5 998.6,488.3 1005.3,495.8 1012.0,490.5"/>
<line x1="752" x2="780" y1="72" y2="72" stroke="#1f77b4" stroke-width="3"/>
<text x="788" y="76" font-family="sans-serif" font-size="13" fill="#222">gatedskip</text>
<line x1="752" x2="780" y1="94" y2="94" stroke="#d62728" stroke-width="3"/>
<text x="788" y="98" font-family="sans-serif" font-size="13" fill="#222">tied</text>
<line x1="752" x2="780" y1="116" y2="116" stroke="#2ca02c" stroke-width="3"/>
<text x="788" y="120" font-family="sans-serif" font-size="13" fill="#222">untied_fast</text>
<text x="520.0" y="582" text-anchor="middle" font-family="sans-serif" font-size="14">step</text>
<text transform="translate(20 300.0) rotate(-90)" text-anchor="middle" font-family="sans-serif" font-size="14">loss</text>
</svg>