<svg xmlns="http://www.w3.org/2000/svg" width="980" height="560" viewBox="0 0 980 560">
<rect width="100%" height="100%" fill="#ffffff"/>
<text x="490.0" y="28" text-anchor="middle" font-family="sans-serif" font-size="20" font-weight="700">Bump Counterfactual Delta</text>
<rect x="76" y="52" width="880" height="446" fill="#fafafa" stroke="#cccccc"/>
<line x1="76" x2="956" y1="498.0" y2="498.0" stroke="#e5e5e5"/>
<text x="66" y="502.0" text-anchor="end" font-family="monospace" font-size="12" fill="#333">-0.167</text>
<line x1="76" x2="956" y1="408.8" y2="408.8" stroke="#e5e5e5"/>
<text x="66" y="412.8" text-anchor="end" font-family="monospace" font-size="12" fill="#333">-0.016</text>
<line x1="76" x2="956" y1="319.6" y2="319.6" stroke="#e5e5e5"/>
<text x="66" y="323.6" text-anchor="end" font-family="monospace" font-size="12" fill="#333">0.136</text>
<line x1="76" x2="956" y1="230.4" y2="230.4" stroke="#e5e5e5"/>
<text x="66" y="234.4" text-anchor="end" font-family="monospace" font-size="12" fill="#333">0.288</text>
<line x1="76" x2="956" y1="141.2" y2="141.2" stroke="#e5e5e5"/>
<text x="66" y="145.2" text-anchor="end" font-family="monospace" font-size="12" fill="#333">0.439</text>
<line x1="76" x2="956" y1="52.0" y2="52.0" stroke="#e5e5e5"/>
<text x="66" y="56.0" text-anchor="end" font-family="monospace" font-size="12" fill="#333">0.591</text>
<line x1="76.0" x2="76.0" y1="52" y2="498" stroke="#ededed"/>
<text x="76.0" y="522" text-anchor="middle" font-family="monospace" font-size="12" fill="#333">2180</text>
<line x1="202.6" x2="202.6" y1="52" y2="498" stroke="#ededed"/>
<text x="202.6" y="522" text-anchor="middle" font-family="monospace" font-size="12" fill="#333">2200</text>
<line x1="329.2" x2="329.2" y1="52" y2="498" stroke="#ededed"/>
<text x="329.2" y="522" text-anchor="middle" font-family="monospace" font-size="12" fill="#333">2220</text>
<line x1="835.7" x2="835.7" y1="52" y2="498" stroke="#ededed"/>
<text x="835.7" y="522" text-anchor="middle" font-family="monospace" font-size="12" fill="#333">2300</text>
<line x1="202.6" x2="202.6" y1="52" y2="498" stroke="#111" stroke-width="1.5" stroke-dasharray="5 5"/>
<text x="208.6" y="68" font-family="sans-serif" font-size="12" fill="#111">loop on @ 2200</text>
<polyline fill="none" stroke="#2ca02c" stroke-width="2.4" points="76.0,115.9 82.3,98.1 88.7,105.0 95.0,104.2 101.3,108.9 107.7,102.3 114.0,93.2 120.3,108.6 126.6,94.5 133.0,112.4 139.3,103.8 145.6,105.3 152.0,102.4 158.3,101.8 164.6,101.2 171.0,96.9 177.3,82.8 183.6,101.0 190.0,84.5 196.3,107.3 202.6,91.3 208.9,257.1 215.3,345.1 221.6,385.1 227.9,400.5 234.3,408.7 240.6,415.7 246.9,419.6 253.3,424.0 259.6,428.7 265.9,432.9 272.3,434.2 278.6,437.3 284.9,438.6 291.3,441.2 297.6,440.8 303.9,442.9 310.2,440.8 316.6,444.5 322.9,440.8 835.7,461.6 842.0,461.9 848.4,461.3 854.7,463.4 861.0,458.8 867.4,464.5 873.7,458.3 880.0,465.8 886.4,459.7 892.7,462.2 899.0,462.5 905.4,463.9 911.7,463.6 918.0,465.3 924.3,460.0 930.7,467.2 937.0,463.3 943.3,465.1 949.7,462.8 956.0,465.4"/>
<circle cx="76.0" cy="115.9" r="2.6" fill="#2ca02c"/>
<circle cx="82.3" cy="98.1" r="2.6" fill="#2ca02c"/>
<circle cx="88.7" cy="105.0" r="2.6" fill="#2ca02c"/>
<circle cx="95.0" cy="104.2" r="2.6" fill="#2ca02c"/>
<circle cx="101.3" cy="108.9" r="2.6" fill="#2ca02c"/>
<circle cx="107.7" cy="102.3" r="2.6" fill="#2ca02c"/>
<circle cx="114.0" cy="93.2" r="2.6" fill="#2ca02c"/>
<circle cx="120.3" cy="108.6" r="2.6" fill="#2ca02c"/>
<circle cx="126.6" cy="94.5" r="2.6" fill="#2ca02c"/>
<circle cx="133.0" cy="112.4" r="2.6" fill="#2ca02c"/>
<circle cx="139.3" cy="103.8" r="2.6" fill="#2ca02c"/>
<circle cx="145.6" cy="105.3" r="2.6" fill="#2ca02c"/>
<circle cx="152.0" cy="102.4" r="2.6" fill="#2ca02c"/>
<circle cx="158.3" cy="101.8" r="2.6" fill="#2ca02c"/>
<circle cx="164.6" cy="101.2" r="2.6" fill="#2ca02c"/>
<circle cx="171.0" cy="96.9" r="2.6" fill="#2ca02c"/>
<circle cx="177.3" cy="82.8" r="2.6" fill="#2ca02c"/>
<circle cx="183.6" cy="101.0" r="2.6" fill="#2ca02c"/>
<circle cx="190.0" cy="84.5" r="2.6" fill="#2ca02c"/>
<circle cx="196.3" cy="107.3" r="2.6" fill="#2ca02c"/>
<circle cx="202.6" cy="91.3" r="2.6" fill="#2ca02c"/>
<circle cx="208.9" cy="257.1" r="2.6" fill="#2ca02c"/>
<circle cx="215.3" cy="345.1" r="2.6" fill="#2ca02c"/>
<circle cx="221.6" cy="385.1" r="2.6" fill="#2ca02c"/>
<circle cx="227.9" cy="400.5" r="2.6" fill="#2ca02c"/>
<circle cx="234.3" cy="408.7" r="2.6" fill="#2ca02c"/>
<circle cx="240.6" cy="415.7" r="2.6" fill="#2ca02c"/>
<circle cx="246.9" cy="419.6" r="2.6" fill="#2ca02c"/>
<circle cx="253.3" cy="424.0" r="2.6" fill="#2ca02c"/>
<circle cx="259.6" cy="428.7" r="2.6" fill="#2ca02c"/>
<circle cx="265.9" cy="432.9" r="2.6" fill="#2ca02c"/>
<circle cx="272.3" cy="434.2" r="2.6" fill="#2ca02c"/>
<circle cx="278.6" cy="437.3" r="2.6" fill="#2ca02c"/>
<circle cx="284.9" cy="438.6" r="2.6" fill="#2ca02c"/>
<circle cx="291.3" cy="441.2" r="2.6" fill="#2ca02c"/>
<circle cx="297.6" cy="440.8" r="2.6" fill="#2ca02c"/>
<circle cx="303.9" cy="442.9" r="2.6" fill="#2ca02c"/>
<circle cx="310.2" cy="440.8" r="2.6" fill="#2ca02c"/>
<circle cx="316.6" cy="444.5" r="2.6" fill="#2ca02c"/>
<circle cx="322.9" cy="440.8" r="2.6" fill="#2ca02c"/>
<circle cx="835.7" cy="461.6" r="2.6" fill="#2ca02c"/>
<circle cx="842.0" cy="461.9" r="2.6" fill="#2ca02c"/>
<circle cx="848.4" cy="461.3" r="2.6" fill="#2ca02c"/>
<circle cx="854.7" cy="463.4" r="2.6" fill="#2ca02c"/>
<circle cx="861.0" cy="458.8" r="2.6" fill="#2ca02c"/>
<circle cx="867.4" cy="464.5" r="2.6" fill="#2ca02c"/>
<circle cx="873.7" cy="458.3" r="2.6" fill="#2ca02c"/>
<circle cx="880.0" cy="465.8" r="2.6" fill="#2ca02c"/>
<circle cx="886.4" cy="459.7" r="2.6" fill="#2ca02c"/>
<circle cx="892.7" cy="462.2" r="2.6" fill="#2ca02c"/>
<circle cx="899.0" cy="462.5" r="2.6" fill="#2ca02c"/>
<circle cx="905.4" cy="463.9" r="2.6" fill="#2ca02c"/>
<circle cx="911.7" cy="463.6" r="2.6" fill="#2ca02c"/>
<circle cx="918.0" cy="465.3" r="2.6" fill="#2ca02c"/>
<circle cx="924.3" cy="460.0" r="2.6" fill="#2ca02c"/>
<circle cx="930.7" cy="467.2" r="2.6" fill="#2ca02c"/>
<circle cx="937.0" cy="463.3" r="2.6" fill="#2ca02c"/>
<circle cx="943.3" cy="465.1" r="2.6" fill="#2ca02c"/>
<circle cx="949.7" cy="462.8" r="2.6" fill="#2ca02c"/>
<circle cx="956.0" cy="465.4" r="2.6" fill="#2ca02c"/>
<text x="490.0" y="544" text-anchor="middle" font-family="sans-serif" font-size="14">step</text>
<text transform="translate(18 280.0) rotate(-90)" text-anchor="middle" font-family="sans-serif" font-size="14">loss delta</text>
<line x1="766" x2="792" y1="68" y2="68" stroke="#2ca02c" stroke-width="3"/>
<text x="800" y="72" font-family="sans-serif" font-size="13" fill="#222">loop_on - loop_off</text>
</svg>